:SAMPLES-PER-SECOND 30
:FULLY-SPECIFIED
:DEGREES
348
root  20.455 38.5575 19.693 65.1999 84.3531 69.8677
RightUpLeg  12.4634 -8.12511 -14.4663
RightLeg  15.1411 5.95606 0.345189
RightFoot  -20.4797 0.474404 7.65958
RightToes  6.35927e-011 1.30204e-014 -6.03759e-014
Spine  10.2227 1.15753 11.9004
Spine1  9.39636 5.53618 -12.3232
HEad  -15.3585 6.22132 -11.0513
LeftShoulder1  -0.874187 5.64117 -34.7078
LeftArm  -7.22833 30.9187 -38.8789
LeftForeArm  25.6596 -5.23676 -6.44818
LeftHand  -0.101472 8.83742 -1.69559
RightShoulder  -0.918592 -6.04351 29.5885
RightArm  15.6709 2.33767 40.6576
RightForeArm  8.9464 5.25131 8.11914
RightHand  -0.280307 2.3172 -4.41298
LeftUpLeg  -10.3281 3.98666 5.19434
LeftLeg  16.2875 1.85903 0.987366
LeftFoot  -6.39488 0.251204 -4.92892
LeftToes  -7.16024e-010 4.79583e-011 -5.98286e-011
349
root  20.1543 38.6329 20.1239 74.1321 84.6771 78.6792
RightUpLeg  11.7532 -8.56778 -13.4291
RightLeg  15.7839 4.94711 0.227522
RightFoot  -20.1449 0.362544 6.4803
RightToes  6.35927e-011 1.30204e-014 -6.03759e-014
Spine  9.8799 0.806605 10.2706
Spine1  9.47097 4.2974 -9.45597
HEad  -12.7252 7.10332 -10.95
LeftShoulder1  -0.836724 5.56495 -34.411
LeftArm  -6.37237 29.1843 -40.0457
LeftForeArm  27.4446 -6.62913 -7.2097
LeftHand  -0.116791 9.12093 -1.97238
RightShoulder  -0.943039 -6.11029 29.6096
RightArm  15.3754 3.58838 39.886
RightForeArm  8.52826 5.82936 7.99629
RightHand  -0.284092 2.24969 -4.50991
LeftUpLeg  -10.8956 0.734084 5.24424
LeftLeg  15.5139 -0.89438 0.149114
LeftFoot  -6.67838 0.226585 -4.58515
LeftToes  -7.16024e-010 4.79583e-011 -5.98286e-011
350
root  19.9298 38.6891 20.4636 86.6058 84.6794 90.7074
RightUpLeg  10.9569 -9.13797 -12.7207
RightLeg  16.2406 3.87731 0.0141298
RightFoot  -19.9161 0.309277 5.92476
RightToes  6.35927e-011 1.30204e-014 -6.03759e-014
Spine  9.55551 0.416754 9.43482
Spine1  8.99764 3.3492 -7.8312
HEad  -10.4958 7.45422 -10.6494
LeftShoulder1  -0.819687 5.53793 -34.1171
LeftArm  -4.63 26.8596 -39.9732
LeftForeArm  28.2517 -8.90301 -7.71881
LeftHand  -0.135638 9.17361 -2.4947
RightShoulder  -0.965409 -6.18787 29.4059
RightArm  13.9168 3.22696 39.6405
RightForeArm  7.70366 7.26198 7.33335
RightHand  -0.282565 2.33178 -4.44545
LeftUpLeg  -12.0612 -1.49805 4.70357
LeftLeg  15.8 -3.25172 -0.656543
LeftFoot  -6.43194 0.256816 -5.08229
LeftToes  -7.16024e-010 4.79583e-011 -5.98286e-011
351
root  19.7717 38.7246 20.73 97.5515 84.4197 100.994
RightUpLeg  10.2024 -9.93521 -12.3022
RightLeg  16.2874 3.28127 -0.118018
RightFoot  -19.9354 0.290878 5.66755
RightToes  6.35927e-011 1.30204e-014 -6.03759e-014
Spine  9.22278 0.183366 9.48377
Spine1  8.51157 2.93171 -7.38344
HEad  -9.54072 7.03973 -10.3319
LeftShoulder1  -0.794846 5.49745 -33.6966
LeftArm  -1.23444 24.3974 -39.5382
LeftForeArm  26.0832 -12.6123 -7.31449
LeftHand  -0.13284 8.89197 -2.65066
RightShoulder  -0.954851 -6.17787 29.1433
RightArm  12.3708 1.79105 39.614
RightForeArm  5.31749 9.29665 6.55546
RightHand  -0.29995 2.79141 -4.47322
LeftUpLeg  -13.6823 -1.25975 3.70066
LeftLeg  17.3423 -4.71072 -1.33533
LeftFoot  -6.11903 0.327984 -6.38326
LeftToes  -7.16024e-010 4.79583e-011 -5.98286e-011
352
root  19.6717 38.7575 20.9487 106.425 84.0924 109.141
RightUpLeg  9.53565 -10.8106 -12.0025
RightLeg  16.0994 2.95931 -0.0751312
RightFoot  -19.9296 0.257495 5.22521
RightToes  6.35927e-011 1.30204e-014 -6.03759e-014
Spine  8.95352 0.143566 9.92379
Spine1  8.18593 2.86576 -7.40824
HEad  -9.71499 6.13486 -10.1636
LeftShoulder1  -0.772771 5.45987 -33.3403
LeftArm  2.92401 22.0303 -39.0722
LeftForeArm  21.4485 -17.2325 -5.77478
LeftHand  -0.0851843 8.3194 -1.43976
RightShoulder  -0.914026 -6.07457 28.9781
RightArm  11.9748 0.545405 39.5378
RightForeArm  2.1555 10.8193 6.19832
RightHand  -0.342671 3.42802 -4.75547
LeftUpLeg  -15.4019 0.351566 2.42745
LeftLeg  19.2405 -4.7764 -1.52613
LeftFoot  -5.81545 0.387828 -7.312
LeftToes  -7.16024e-010 4.79583e-011 -5.98286e-011
353
root  19.6235 38.8074 21.1308 113.895 83.6854 115.86
RightUpLeg  8.98136 -11.392 -11.6834
RightLeg  15.7226 2.39861 -0.0548004
RightFoot  -19.6685 0.21701 4.81
RightToes  6.35927e-011 1.30204e-014 -6.03759e-014
Spine  8.84131 0.212855 10.2467
Spine1  7.82603 2.89977 -7.47303
HEad  -10.3444 5.10857 -10.0881
LeftShoulder1  -0.764102 5.44619 -33.1744
LeftArm  4.43764 19.877 -38.4965
LeftForeArm  18.0995 -21.755 -4.3019
LeftHand  -0.0190553 7.42035 1.24213
RightShoulder  -0.868242 -5.95072 28.8897
RightArm  12.8347 0.286317 39.4802
RightForeArm  0.694642 11.005 6.44665
RightHand  -0.369614 3.69268 -4.97998
LeftUpLeg  -16.9607 1.46416 1.10661
LeftLeg  20.3296 -3.63889 -1.17067
LeftFoot  -5.33919 0.401834 -7.05631
LeftToes  -7.16024e-010 4.79583e-011 -5.98286e-011
354
root  19.6385 38.8723 21.2726 119.912 83.0914 121.185
RightUpLeg  8.74224 -11.6948 -11.4754
RightLeg  15.018 1.57239 -0.183349
RightFoot  -19.2368 0.185142 4.57053
RightToes  6.35927e-011 1.30204e-014 -6.03759e-014
Spine  8.83379 0.296019 10.1273
Spine1  7.44179 2.88684 -7.40645
HEad  -11.0103 4.10742 -9.85104
LeftShoulder1  -0.741521 5.39775 -32.9894
LeftArm  1.20921 18.2013 -37.8574
LeftForeArm  18.6635 -26.1442 -4.54702
LeftHand  0.00404361 6.27119 4.36481
RightShoulder  -0.825215 -5.83455 28.7946
RightArm  14.1874 0.886651 39.722
RightForeArm  1.92579 10.0562 7.04452
RightHand  -0.345862 3.38267 -4.81796
LeftUpLeg  -18.1357 2.07738 -0.301453
LeftLeg  20.1472 -2.80158 -0.815615
LeftFoot  -4.96786 0.392656 -6.51009
LeftToes  -7.16024e-010 4.79583e-011 -5.98286e-011
355
root  19.7332 38.932 21.3728 125.08 82.2862 125.793
RightUpLeg  8.96797 -12.0022 -11.5194
RightLeg  13.977 0.776096 -0.28839
RightFoot  -18.8985 0.166637 4.46147
RightToes  6.35927e-011 1.30204e-014 -6.03759e-014
Spine  8.77306 0.359034 9.57312
Spine1  7.23542 2.80305 -7.17031
HEad  -11.5257 3.1995 -9.45848
LeftShoulder1  -0.677437 5.25432 -32.5395
LeftArm  -3.0152 17.1274 -37.3955
LeftForeArm  20.0293 -30.9198 -5.64457
LeftHand  -0.0294103 5.22705 6.69158
RightShoulder  -0.783337 -5.72142 28.6934
RightArm  15.0637 1.73139 40.3476
RightForeArm  4.53827 8.66816 7.58794
RightHand  -0.300541 2.89708 -4.43354
LeftUpLeg  -18.8752 3.0932 -1.90226
LeftLeg  18.9218 -3.10263 -0.85486
LeftFoot  -5.04175 0.401394 -6.74268
LeftToes  -7.16024e-010 4.79583e-011 -5.98286e-011
356
root  19.8991 38.9764 21.4309 129.793 81.4237 129.968
RightUpLeg  9.42414 -12.2755 -11.6459
RightLeg  12.7996 0.0256492 -0.27012
RightFoot  -18.686 0.16758 4.58329
RightToes  6.35927e-011 1.30204e-014 -6.03759e-014
Spine  8.60371 0.454306 8.96705
Spine1  7.18529 2.76172 -6.96936
HEad  -11.8362 2.83208 -9.65417
LeftShoulder1  -0.6033 5.08676 -31.9651
LeftArm  -6.11081 16.3057 -36.9676
LeftForeArm  21.3146 -35.8466 -6.83118
LeftHand  -0.0669725 4.63631 7.66097
RightShoulder  -0.746972 -5.62466 28.572
RightArm  15.1602 2.28033 41.1621
RightForeArm  6.54879 7.4462 7.81951
RightHand  -0.274081 2.58142 -4.20087
LeftUpLeg  -19.3533 4.80103 -3.66846
LeftLeg  16.9813 -3.55986 -0.914159
LeftFoot  -4.9801 0.428308 -7.16711
LeftToes  -7.16024e-010 4.79583e-011 -5.98286e-011
357
root  20.1203 38.9967 21.4318 133.994 80.7748 133.593
RightUpLeg  9.76017 -12.2937 -11.5468
RightLeg  11.8894 -0.913206 -0.302774
RightFoot  -18.4096 0.168648 4.74824
RightToes  6.35927e-011 1.30204e-014 -6.03759e-014
Spine  8.49469 0.608542 8.76147
Spine1  7.04709 2.85938 -6.99151
HEad  -12.1862 2.52246 -9.85942
LeftShoulder1  -0.573071 5.02171 -31.6088
LeftArm  -8.05968 15.4414 -36.3224
LeftForeArm  23.246 -40.4402 -8.04333
LeftHand  -0.0815882 4.39127 7.51261
RightShoulder  -0.723988 -5.56773 28.4188
RightArm  14.8273 2.39864 41.8852
RightForeArm  7.14225 6.82464 7.77292
RightHand  -0.268368 2.45834 -4.17797
LeftUpLeg  -19.71 6.64076 -5.27854
LeftLeg  14.7704 -2.36655 -0.651801
LeftFoot  -4.0145 0.475998 -7.05866
LeftToes  -7.16024e-010 4.79583e-011 -5.98286e-011
358
root  20.4102 38.9606 21.3642 138.744 80.3487 137.912
RightUpLeg  10.0671 -12.1343 -11.1466
RightLeg  11.568 -2.0751 -0.451845
RightFoot  -18.2182 0.160741 4.73096
RightToes  6.35927e-011 1.30204e-014 -6.03759e-014
Spine  8.57346 0.718435 8.95449
Spine1  6.80444 2.94938 -6.98188
HEad  -12.6564 2.31399 -10.147
LeftShoulder1  -0.577705 5.03814 -31.5043
LeftArm  -9.26872 14.7408 -35.5594
LeftForeArm  25.5785 -44.5507 -9.24941
LeftHand  -0.0898455 4.16747 6.96629
RightShoulder  -0.725342 -5.57313 28.393
RightArm  14.5211 2.32431 42.2627
RightForeArm  6.73145 7.04756 7.65102
RightHand  -0.268027 2.48648 -4.18191
LeftUpLeg  -19.9798 8.59233 -6.5278
LeftLeg  13.2207 0.47617 -0.452667
LeftFoot  -2.61283 0.585962 -7.44783
LeftToes  -7.16024e-010 4.79583e-011 -5.98286e-011
359
root  20.7936 38.8467 21.2453 145.35 79.7942 144.366
RightUpLeg  10.7512 -12.0512 -10.5929
RightLeg  11.5923 -3.20474 -0.478842
RightFoot  -18.5307 0.197152 5.12453
RightToes  6.35927e-011 1.30204e-014 -6.03759e-014
Spine  8.62196 0.684335 9.11521
Spine1  6.75963 2.81645 -6.57076
HEad  -13.0666 2.3407 -10.4177
LeftShoulder1  -0.558675 4.99399 -31.3399
LeftArm  -10.1003 14.5684 -35.0559
LeftForeArm  27.6009 -48.0547 -10.4293
LeftHand  -0.0973506 3.99169 6.75835
RightShoulder  -0.755384 -5.64385 28.6519
RightArm  14.6668 2.2974 42.2091
RightForeArm  5.8738 8.0133 7.59848
RightHand  -0.272488 2.62935 -4.1552
LeftUpLeg  -20.2334 12.2084 -8.06024
LeftLeg  12.9176 2.39688 -0.498825
LeftFoot  -1.7789 0.737068 -8.66694
LeftToes  -7.16024e-010 4.79583e-011 -5.98286e-011
